<svg width="33" height="27" viewBox="0 0 33 27" fill="none" xmlns="http://www.w3.org/2000/svg">
<g clip-path="url(#clip0_122_124)">
<path d="M16.3826 3.91893C17.0857 3.29698 17.7546 2.65702 18.4728 2.07707C20.3434 0.568178 22.49 -0.151768 24.9036 0.0322179C28.5834 0.313197 31.7 2.97 32.657 6.55973C33.4024 9.35753 32.8967 11.9563 31.4794 14.4292C30.1991 16.664 28.4987 18.5578 26.6241 20.3067C24.2287 22.5416 21.6066 24.4894 18.8465 26.2553C17.3456 27.2152 15.7813 27.2632 14.2753 26.3053C10.9672 24.2014 7.84957 21.8506 5.11266 19.0358C3.42136 17.2969 1.89829 15.4251 0.932261 13.1812C-0.591824 9.63751 -0.287611 6.24876 2.12896 3.19498C4.88602 -0.287759 9.93876 -1.00271 13.689 1.44511C14.7709 2.15106 15.6896 3.028 16.3826 3.91893ZM31.1319 9.18954C31.0624 8.63458 31.0221 8.07462 30.9204 7.52466C30.1568 3.40097 25.9351 0.923152 21.9562 2.27105C19.9455 2.952 18.5333 4.3469 17.4423 6.10477C16.9064 6.9687 16.1338 6.9777 15.5969 6.11977C15.0096 5.18084 14.3206 4.3309 13.4674 3.61495C10.4928 1.11614 6.21569 1.33812 3.73766 4.23291C1.75122 6.55274 1.44801 9.23354 2.51678 12.0523C3.26221 14.0202 4.54957 15.6541 5.9699 17.1829C8.67155 20.0907 11.8204 22.4586 15.1386 24.6214C16.0754 25.2324 17.0062 25.2543 17.9077 24.6044C19.8478 23.2065 21.8182 21.8426 23.6847 20.3527C25.8857 18.5968 27.8581 16.599 29.3912 14.2202C30.3774 12.6903 31.1007 11.0624 31.1309 9.18954H31.1319Z" fill="#EA600A"/>
<path d="M31.1319 9.18954C31.0624 8.63458 31.0221 8.07462 30.9204 7.52466C30.1568 3.40097 25.9351 0.923152 21.9562 2.27105C19.9455 2.952 18.5333 4.3469 17.4423 6.10477C16.9064 6.9687 16.1338 6.9777 15.5969 6.11977C15.0096 5.18084 14.3206 4.3309 13.4674 3.61495C10.4928 1.11614 6.21569 1.33812 3.73766 4.23291C1.75122 6.55274 1.44801 9.23354 2.51678 12.0523C3.26221 14.0202 4.54957 15.6541 5.9699 17.1829C8.67155 20.0907 11.8204 22.4586 15.1386 24.6214C16.0754 25.2324 17.0062 25.2543 17.9077 24.6044C19.8478 23.2065 21.8182 21.8426 23.6847 20.3527C25.8857 18.5968 27.8581 16.599 29.3912 14.2202C30.3774 12.6903 31.1007 11.0624 31.1309 9.18954H31.1319Z" fill="#EA600A"/>
</g>
<defs>
<clipPath id="clip0_122_124">
<rect width="33" height="27" fill="white"/>
</clipPath>
</defs>
</svg>
