<svg width="258" height="64" viewBox="0 0 258 64" fill="none" xmlns="http://www.w3.org/2000/svg">
<g clip-path="url(#clip0_1_75)">
<path d="M94.2011 35.1673C97.0102 35.1673 99.2874 32.886 99.2874 30.0719C99.2874 27.2578 97.0102 24.9766 94.2011 24.9766C91.392 24.9766 89.1147 27.2578 89.1147 30.0719C89.1147 32.886 91.392 35.1673 94.2011 35.1673Z" fill="#EA600A"/>
<path d="M80.0406 1.37073V7.13071C80.0406 8.04453 79.585 8.41103 78.6714 8.41103H44.7206V62.6283C44.7206 63.5421 44.264 64 43.3513 64H36.6889C35.7767 64 35.4108 63.5426 35.4108 62.6283V8.41103H1.36927C0.455611 8.41103 0 8.04502 0 7.13071V1.37073C0 0.45642 0.455611 0 1.36927 0H78.6714C79.585 0 80.0406 0.45642 80.0406 1.37073Z" fill="white"/>
<path d="M255.718 26.9708H194.628V26.9747H184.347V62.6283C184.347 63.5421 184.803 64 185.716 64H192.47C193.383 64 193.748 63.5426 193.748 62.6283V35.3828H255.718C256.63 35.3828 257.087 34.9254 257.087 34.0111V28.342C257.087 27.4282 256.631 26.9703 255.718 26.9703V26.9708Z" fill="#EA600A"/>
<path d="M256.631 0H185.716C184.804 0 184.347 0.45642 184.347 1.37073V8.39833H194.629V8.41103H256.631C257.543 8.41103 258 7.95364 258 7.03933V1.37073C258 0.456909 257.543 0 256.631 0Z" fill="#EA600A"/>
<path d="M156.335 0H91.444C90.5318 0 90.0747 0.45642 90.0747 1.37073V16.9569H99.4752V8.41103H154.6C160.807 8.41103 163.545 10.9707 163.545 17.2795V46.6282C163.545 53.0283 160.807 55.589 154.6 55.589H99.4752V43.5896H90.0747V62.6283C90.0747 63.5421 90.5313 64 91.444 64H156.335C167.651 64 172.946 58.24 172.946 47.542V16.4565C172.946 5.75901 167.651 0 156.335 0Z" fill="white"/>
</g>
<defs>
<clipPath id="clip0_1_75">
<rect width="258" height="64" fill="white"/>
</clipPath>
</defs>
</svg>
