<svg width="129" height="32" viewBox="0 0 129 32" fill="none" xmlns="http://www.w3.org/2000/svg">
<g clip-path="url(#clip0_1_6)">
<path d="M47.1008 17.5837C48.5054 17.5837 49.644 16.443 49.644 15.036C49.644 13.6289 48.5054 12.4883 47.1008 12.4883C45.6962 12.4883 44.5576 13.6289 44.5576 15.036C44.5576 16.443 45.6962 17.5837 47.1008 17.5837Z" fill="#EA600A"/>
<path d="M40.0203 0.685363V3.56536C40.0203 4.02226 39.7925 4.20552 39.3357 4.20552H22.3603V31.3141C22.3603 31.7711 22.132 32 21.6757 32H18.3444C17.8883 32 17.7054 31.7713 17.7054 31.3141V4.20552H0.684635C0.227805 4.20552 0 4.02251 0 3.56536V0.685363C0 0.22821 0.227805 0 0.684635 0H39.3357C39.7925 0 40.0203 0.22821 40.0203 0.685363Z" fill="white"/>
<path d="M127.859 13.4856H97.3141V13.4876H92.1733V31.3143C92.1733 31.7712 92.4016 32.0002 92.858 32.0002H96.2348C96.6916 32.0002 96.8738 31.7715 96.8738 31.3143V17.6916H127.859C128.315 17.6916 128.544 17.4629 128.544 17.0058V14.1712C128.544 13.7143 128.315 13.4854 127.859 13.4854V13.4856Z" fill="#EA600A"/>
<path d="M128.316 0H92.8585C92.4024 0 92.1738 0.22821 92.1738 0.685363V4.19916H97.3146V4.20552H128.316C128.772 4.20552 129 3.97682 129 3.51967V0.685363C129 0.228454 128.772 0 128.316 0Z" fill="#EA600A"/>
<path d="M78.1677 0H45.7222C45.2661 0 45.0376 0.22821 45.0376 0.685363V8.47847H49.7378V4.20552H77.3003C80.4038 4.20552 81.7728 5.48535 81.7728 8.63973V23.3141C81.7728 26.5142 80.4038 27.7945 77.3003 27.7945H49.7378V21.7948H45.0376V31.3141C45.0376 31.7711 45.2659 32 45.7222 32H78.1677C83.826 32 86.473 29.12 86.473 23.771V8.22827C86.473 2.8795 83.826 0 78.1677 0Z" fill="white"/>
</g>
<defs>
<clipPath id="clip0_1_6">
<rect width="129" height="32" fill="white"/>
</clipPath>
</defs>
</svg>
